PathFileType	4	(X/Y/Z)	C:/Users/opensim2020/Desktop/walking_exp_matlab/subject01_walking10_straight_01.trc	
DataRate	CameraRate	NumFrames	NumMarkers	Units	OrigDataRate	OrigDataStartFrame	OrigNumFrames	
100.00	100.00	8	43	mm	100.00	1052	349	
Frame#	Time	LFHD			RFHD			LBHD			RBHD			C7			T10			CLAV			STRN			RBAK			LSHO			LUPA			LELB			LFRM			LWRA			LWRB			LFIN			RSHO			RUPA			RELB			RFRM			RWRA			RWRB			RFIN			LASI			RASI			LPSI			RPSI			LTHI			LKNE			LTIB			LANK			LHEE			LTOE			RTHI			RKNE			RTIB			RANK			RHEE			RTOE			*39			*40			*41			*42			
		X1	Y1	Z1	X2	Y2	Z2	X3	Y3	Z3	X4	Y4	Z4	X5	Y5	Z5	X6	Y6	Z6	X7	Y7	Z7	X8	Y8	Z8	X9	Y9	Z9	X10	Y10	Z10	X11	Y11	Z11	X12	Y12	Z12	X13	Y13	Z13	X14	Y14	Z14	X15	Y15	Z15	X16	Y16	Z16	X17	Y17	Z17	X18	Y18	Z18	X19	Y19	Z19	X20	Y20	Z20	X21	Y21	Z21	X22	Y22	Z22	X23	Y23	Z23	X24	Y24	Z24	X25	Y25	Z25	X26	Y26	Z26	X27	Y27	Z27	X28	Y28	Z28	X29	Y29	Z29	X30	Y30	Z30	X31	Y31	Z31	X32	Y32	Z32	X33	Y33	Z33	X34	Y34	Z34	X35	Y35	Z35	X36	Y36	Z36	X37	Y37	Z37	X38	Y38	Z38	X39	Y39	Z39	X40	Y40	Z40	X41	Y41	Z41	X42	Y42	Z42	X43	Y43	Z43	

131	1.300	1429.02783	-316.72510	1680.50513	1538.48840	-287.31830	1688.85229	1454.60083	-425.18564	1624.07349	1571.17725	-396.43716	1631.51575	1486.97046	-439.71259	1435.53625	1491.49207	-469.20078	1141.64868	1485.00256	-296.17523	1369.93689	1478.67529	-250.99808	1214.28442	1562.07141	-490.30365	1239.40955	1325.09216	-355.93970	1401.11328	1240.99414	-387.41364	1216.38184	1242.75281	-403.17789	1066.59766	1218.20288	-368.24997	958.69452	1234.36780	-293.94238	841.33813	1212.70862	-349.61823	837.59943	1201.50146	-302.76511	766.97949	1637.66309	-357.44907	1394.62915	1737.00220	-398.43744	1188.56091	1739.07312	-381.54193	1064.56873	1766.35791	-332.30670	953.52185	1743.78125	-231.53250	854.23120	1783.55115	-273.97452	846.99182	1780.10815	-224.14679	776.95764	1378.90747	-295.93478	940.51563	1595.90173	-295.46481	931.08551	1428.46228	-481.97235	949.08685	1573.95447	-480.42047	949.07416	1301.17017	-243.57436	627.60339	1313.66211	-222.28221	494.15543	1306.88965	-307.37247	326.93411	1355.22644	-375.10684	117.25953	1415.09802	-415.81293	91.90822	1329.20056	-246.92407	54.77876	1631.34033	-360.47894	599.31903	1597.09436	-366.47424	441.32904	1596.18445	-426.12048	274.57907	1534.49622	-458.02679	73.79578	1483.69409	-508.56058	39.66436	1533.04285	-318.04916	34.02299	1518.61169	-305.72293	1721.01440	-3101.92065	1973.06372	1023.52972	-3140.69556	2012.60730	1022.09058			 
132	1.310	1428.69873	-309.89395	1680.06812	1538.10706	-280.36456	1688.50500	1454.42639	-418.64014	1624.24182	1570.99011	-389.78314	1631.81482	1487.28650	-433.76892	1435.52588	1491.72241	-463.93640	1141.68396	1485.01929	-290.44180	1369.61267	1478.65710	-245.60695	1213.88647	1562.51501	-484.77206	1239.53699	1325.22473	-350.52319	1400.94702	1241.25061	-382.89822	1216.32410	1243.02637	-398.92368	1066.72791	1218.24170	-364.80344	958.49908	1233.76599	-290.80182	840.84088	1212.58545	-346.61716	837.37042	1201.13477	-300.03928	766.62598	1637.75134	-351.32495	1394.42407	1737.46570	-392.15961	1188.51672	1739.55798	-375.41690	1064.42249	1766.67871	-325.13519	953.69934	1743.65527	-223.64720	855.28253	1783.46338	-265.97226	847.51709	1779.92212	-215.43541	778.04633	1379.30774	-291.02499	940.64600	1596.06287	-290.85339	930.72162	1428.33252	-477.05231	948.90149	1573.78027	-475.98740	948.89581	1301.25037	-238.09302	627.88794	1314.21924	-216.13560	494.37564	1306.63477	-295.16296	324.07541	1354.03247	-353.54898	111.58031	1413.44678	-394.49533	84.59751	1329.42859	-222.83586	53.85332	1631.30212	-357.43402	599.20422	1596.96252	-364.59201	441.09201	1596.10278	-425.07202	274.76654	1534.42468	-457.85785	73.97286	1483.69995	-508.44855	39.91265	1533.16968	-317.91922	34.06432	1518.09229	-298.64267	1720.69373	-3101.92065	1973.32007	1023.41644	-3140.73291	2012.56189	1022.05255			 
133	1.320	1428.24060	-303.10822	1679.54395	1537.68250	-273.46072	1688.07739	1454.26636	-412.10675	1624.33923	1570.76038	-383.09064	1631.99207	1487.58093	-427.89096	1435.50110	1491.84888	-458.76425	1141.69275	1485.00647	-284.69144	1369.26892	1478.63501	-240.22951	1213.41003	1562.91406	-479.22751	1239.68115	1325.32483	-345.08914	1400.74695	1241.41589	-378.30054	1216.13757	1243.16553	-394.83624	1066.55396	1218.21008	-361.16586	958.32227	1233.49585	-287.53766	840.40320	1212.45142	-343.44998	837.16156	1200.59924	-297.03354	766.54761	1637.88904	-345.08658	1394.18420	1737.89722	-385.74277	1188.45154	1740.00793	-369.23541	1064.26086	1766.83813	-318.14365	953.75787	1743.41467	-215.89064	856.26959	1783.39856	-257.95767	848.18799	1779.64990	-206.87354	779.07379	1379.31470	-285.88467	940.64081	1596.26038	-286.21475	930.41803	1428.13623	-472.07571	948.70233	1573.42407	-471.22745	948.54236	1301.37048	-232.79774	627.86426	1314.76099	-210.27650	494.32480	1306.23743	-282.76608	321.37454	1353.00012	-332.26501	106.46932	1411.95874	-372.89505	77.93388	1329.53845	-199.42467	53.70282	1631.17847	-354.31656	599.00916	1596.88611	-362.62027	440.90472	1596.17395	-423.99985	274.98010	1534.39026	-457.70529	74.22478	1483.55286	-507.75021	39.73268	1533.07996	-317.94843	33.81916	1517.47668	-291.64447	1720.20349	-3102.01318	1973.05225	1023.37335	-3140.70361	2012.55591	1022.00226			 
134	1.330	1427.81152	-296.31580	1679.01147	1537.16052	-266.54581	1687.59644	1454.01331	-405.52628	1624.31653	1570.48425	-376.43036	1632.08313	1487.74719	-421.90234	1435.38831	1491.93494	-453.58990	1141.73938	1484.87866	-278.95377	1368.82983	1478.57825	-234.85654	1212.92529	1563.29993	-473.69058	1239.79773	1325.28650	-339.62534	1400.48267	1241.48962	-373.72919	1215.98804	1243.26733	-390.54205	1066.47754	1218.13025	-357.38235	958.12207	1233.20325	-283.95325	840.05731	1212.26428	-340.07782	836.90643	1200.22827	-293.75909	766.27386	1637.82544	-338.87985	1393.89148	1738.25000	-379.32840	1188.38562	1740.45679	-363.02667	1064.09155	1767.01331	-311.13715	953.84729	1743.11707	-208.20230	857.20300	1783.22168	-250.08282	848.66315	1779.31775	-198.37415	780.15149	1379.51978	-280.79950	940.61945	1596.37585	-281.52582	930.11285	1427.82202	-467.10831	948.48724	1573.04053	-466.43811	948.29364	1301.41980	-227.66609	627.64856	1315.34143	-204.57646	494.08621	1305.76892	-270.40643	318.62628	1351.92676	-311.52991	101.55364	1410.64551	-351.24777	71.77851	1329.51294	-176.27214	54.01377	1631.07483	-351.27750	598.80817	1596.92859	-360.47241	440.69351	1596.08972	-422.86316	275.17297	1534.29236	-457.60233	74.51440	1483.47388	-507.59061	40.05717	1533.05115	-317.93790	33.67388	1516.94531	-284.61325	1719.78625	-3102.07446	1973.12720	1023.38116	-3140.67603	2012.61304	1022.07373			 
135	1.340	1427.20801	-289.68427	1678.34692	1536.55225	-259.66443	1687.07361	1453.76721	-398.86014	1624.08606	1570.12427	-369.70392	1632.06335	1487.88318	-416.03140	1435.26892	1491.81702	-448.28644	1141.60303	1484.62244	-273.21176	1368.32813	1478.46936	-229.42172	1212.37939	1563.59570	-468.16266	1239.85608	1325.21045	-334.09586	1400.18091	1241.52588	-369.02142	1215.81421	1243.34302	-386.21146	1066.38867	1218.01526	-353.42380	957.90900	1232.97693	-280.37103	839.51416	1212.00647	-336.52280	836.64099	1199.87292	-290.56659	765.58813	1637.63574	-332.69092	1393.53406	1738.56604	-372.90414	1188.28064	1740.74329	-356.83533	1063.87842	1767.02307	-304.18701	953.86456	1742.65076	-200.66922	858.01007	1782.83789	-242.38503	849.06726	1778.81006	-190.01704	781.06696	1379.57434	-275.51053	940.48737	1596.47253	-276.85980	929.80402	1427.42590	-462.01242	948.26129	1572.66711	-461.62244	948.27948	1301.45496	-222.76164	627.22711	1315.78638	-199.08582	493.72156	1305.14221	-258.07281	316.10553	1350.96326	-290.73883	97.17970	1409.47009	-329.85190	66.04498	1329.13086	-153.60007	55.05617	1629.90552	-351.99200	597.64734	1596.97119	-358.06265	440.64069	1595.99048	-421.56610	275.23941	1534.26611	-457.44327	74.74879	1483.39087	-507.76047	40.68624	1533.07788	-317.88739	33.66553	1516.33313	-277.58844	1719.30603	-3102.32202	1972.84509	1024.00159	-3140.70508	2012.56604	1022.06018			 
136	1.350	1426.71924	-282.86768	1677.78235	1535.94592	-252.78378	1686.50183	1453.37854	-392.42694	1624.03943	1569.73010	-363.00360	1632.00830	1487.85925	-410.11212	1435.11938	1491.64441	-442.94885	1141.46533	1484.43091	-267.46198	1367.84753	1478.28870	-224.00510	1211.79529	1563.80908	-462.64117	1239.90088	1325.08325	-328.48639	1399.88281	1241.54016	-364.35269	1215.67419	1243.23083	-381.71085	1066.18152	1217.72900	-349.33185	957.68292	1232.24072	-276.52631	839.02380	1211.69043	-332.77933	836.35254	1199.38989	-287.06863	765.18719	1637.42871	-326.49649	1393.13513	1738.82153	-366.45834	1188.14709	1740.97913	-350.66205	1063.65247	1766.98242	-297.23834	953.83557	1742.10657	-193.27046	858.75214	1782.57532	-234.62645	849.56250	1778.23669	-181.84811	781.94293	1379.59302	-270.20325	940.19769	1596.46948	-272.20728	929.42743	1426.95642	-456.87549	948.08105	1572.17834	-457.14117	948.24750	1301.46472	-218.07510	626.50610	1316.29431	-193.67636	493.16125	1304.75342	-246.20326	313.82632	1350.02808	-270.30710	93.60936	1408.29663	-308.68643	61.03731	1328.69324	-131.54770	56.44656	1629.87280	-348.51221	597.63770	1596.90186	-355.61615	440.35587	1595.96997	-420.20596	275.45776	1534.22534	-457.22870	75.18819	1483.13464	-507.61414	40.97266	1533.12305	-317.81741	33.60612	1515.67090	-270.56732	1718.77820	-3101.89404	1973.17468	1023.39581	-3140.71777	2012.49707	1022.01630			 
137	1.360	1426.01404	-276.21902	1677.06140	1535.25659	-245.87253	1685.82935	1452.95850	-385.86761	1623.87488	1569.26929	-356.24792	1631.90381	1487.76514	-404.26212	1434.91223	1491.32910	-437.57126	1141.30884	1484.12366	-261.65948	1367.32654	1478.09277	-218.50793	1211.21594	1563.92761	-457.12531	1239.89319	1324.92920	-322.89539	1399.50928	1241.51221	-359.72385	1215.41785	1243.17480	-377.14243	1065.97791	1217.41211	-345.29947	957.37421	1231.90479	-272.53586	838.55212	1211.29968	-328.83344	835.98218	1198.97266	-283.24170	764.92902	1637.14502	-320.34927	1392.77100	1739.00867	-360.04507	1188.01843	1741.13330	-344.45047	1063.38818	1766.86621	-290.36310	953.81921	1741.49036	-185.89867	859.37067	1782.02954	-227.09309	849.77606	1777.55701	-173.80595	782.66931	1379.45850	-264.89584	939.77545	1596.44104	-267.48672	929.04767	1426.39722	-451.63861	947.94110	1571.49365	-452.22830	947.88300	1301.40039	-213.52525	625.66205	1316.78748	-188.48842	492.58362	1304.12097	-234.54391	311.83231	1349.00964	-250.39267	90.34219	1407.19873	-287.61575	56.41164	1328.09387	-110.12565	58.43131	1629.72253	-345.30533	597.25281	1596.77612	-352.98325	440.04291	1595.91150	-418.53476	275.64789	1534.12646	-456.92715	75.49323	1482.90820	-507.95163	41.98033	1533.18677	-317.66840	33.58713	1514.94458	-263.56873	1718.19080	-3101.89502	1973.15381	1023.34155	-3140.69971	2012.45129	1022.05347			 
138	1.370	1425.37085	-269.41354	1676.41382	1534.50171	-238.96547	1685.19946	1452.48535	-379.34918	1623.77612	1568.77722	-349.54486	1631.82739	1487.48450	-398.34253	1434.51917	1490.89856	-432.21210	1141.11743	1483.77173	-255.89157	1366.77600	1477.83069	-212.99771	1210.64465	1563.89417	-451.58563	1239.84583	1324.63342	-317.24176	1399.10095	1241.13660	-354.45251	1215.07153	1242.92883	-372.52872	1065.69397	1216.95679	-341.18060	957.02008	1231.46008	-268.36362	838.10974	1210.88806	-324.72278	835.62982	1198.26355	-279.24036	764.53943	1636.79590	-314.26135	1392.32751	1739.07898	-353.64938	1187.82751	1741.20142	-338.26523	1063.07288	1766.60852	-283.58969	953.71027	1740.80029	-178.70886	859.90924	1781.56226	-219.62326	850.09656	1776.81653	-165.86534	783.37646	1379.35327	-259.44806	939.28320	1596.39697	-262.70886	928.67230	1425.76953	-446.34720	947.69220	1570.92126	-447.41312	947.95361	1301.35010	-209.14853	624.64325	1317.06592	-183.37051	491.90759	1303.65869	-223.41006	310.16077	1347.84033	-231.04152	87.88249	1406.23474	-267.22217	52.86078	1327.64111	-89.25481	60.73967	1629.68127	-341.82126	597.04822	1596.72742	-349.98959	439.78619	1595.90308	-416.69577	275.82712	1534.13477	-456.58551	75.93170	1482.93372	-507.32217	42.19542	1533.19507	-317.61227	33.52476	1514.37390	-256.40128	1717.74182	-3102.03882	1973.13049	1023.40649	-3140.71387	2012.47339	1022.01740			 
